<svg id="Layer_1" data-name="Layer 1" xmlns="http://www.w3.org/2000/svg" viewBox="0 0 566.9 36.4"><defs><style>.cls-1{fill:#fff;}</style></defs><title>dst_main_logo</title><rect class="cls-1" x="87.5" y="4.4" width="1.4" height="1.4"/><rect class="cls-1" x="87.5" y="8.7" width="1.4" height="1.4"/><rect class="cls-1" x="87.5" y="13.1" width="1.4" height="1.4"/><rect class="cls-1" x="87.5" y="17.5" width="1.4" height="1.4"/><rect class="cls-1" x="87.5" y="21.9" width="1.4" height="1.4"/><rect class="cls-1" x="92.2" y="4.4" width="1.4" height="1.4"/><rect class="cls-1" x="92.2" y="8.7" width="1.4" height="1.4"/><rect class="cls-1" x="87.5" width="1.4" height="1.4"/><rect class="cls-1" x="92.2" width="1.4" height="1.4"/><rect class="cls-1" x="87.5" y="35" width="1.4" height="1.4"/><rect class="cls-1" x="92.2" y="35" width="1.4" height="1.4"/><rect class="cls-1" x="87.5" y="30.6" width="1.4" height="1.4"/><rect class="cls-1" x="92.2" y="30.6" width="1.4" height="1.4"/><rect class="cls-1" x="92.2" y="13.1" width="1.4" height="1.4"/><rect class="cls-1" x="92.2" y="17.5" width="1.4" height="1.4"/><rect class="cls-1" x="92.2" y="21.9" width="1.4" height="1.4"/><rect class="cls-1" x="87.5" y="21.9" width="1.4" height="1.4"/><rect class="cls-1" x="87.5" y="26.2" width="1.4" height="1.4"/><rect class="cls-1" x="92.2" y="21.9" width="1.4" height="1.4"/><rect class="cls-1" x="92.2" y="26.2" width="1.4" height="1.4"/><rect class="cls-1" x="87.5" y="30.6" width="1.4" height="1.4"/><rect class="cls-1" x="92.2" y="30.6" width="1.4" height="1.4"/><path class="cls-1" d="M111.3,22.8l.9-1.8a5,5,0,0,0,3.2,1.1c1.6,0,2.2-.7,2.2-1.9s-.8-1.8-2.2-2.3-3.5-1.7-3.5-4.2,1.6-3.8,4.1-3.8a5.9,5.9,0,0,1,3.5.9l-.9,1.8a4,4,0,0,0-2.4-.8c-1.2,0-1.9.5-1.9,1.6s.4,1.5,1.9,2S120,17.1,120,20s-1.1,4.1-4.5,4.1A7.1,7.1,0,0,1,111.3,22.8Z"/><path class="cls-1" d="M122.8,18.8c0-3.7,1.5-5.2,4.1-5.2a3.9,3.9,0,0,1,3,1.1l-1.2,1.5a2.2,2.2,0,0,0-1.7-.8c-1.3,0-1.8.5-1.8,3.4s.5,3.5,1.9,3.5a2.4,2.4,0,0,0,1.7-.8l1.1,1.5a3.9,3.9,0,0,1-3,1.2C124.2,24.1,122.8,22.4,122.8,18.8Z"/><path class="cls-1" d="M133.3,15.5l-1.3-.2V13.8h3.5v10h-2.2Zm-.3-4.6a1.4,1.4,0,1,1,1.4,1.4A1.4,1.4,0,0,1,133,10.9Z"/><path class="cls-1" d="M138.8,18.8c0-3.8,1.5-5.2,4-5.2s3.9,1.5,3.9,5.2v.7h-5.6c.1,2.3.6,2.8,2.1,2.8a3.5,3.5,0,0,0,2.3-.9l1.1,1.5a4.9,4.9,0,0,1-3.3,1.2C140.3,24.1,138.8,22.6,138.8,18.8Zm2.4-.9h3.3c0-1.9-.4-2.6-1.6-2.6S141.3,15.8,141.2,17.9Z"/><path class="cls-1" d="M149.9,13.8h1.8l.2,1.1a4.1,4.1,0,0,1,2.9-1.3c1.6,0,2.5.7,2.5,2.6v7.6h-2.2V16.8c0-1-.3-1.3-1.1-1.3a2.9,2.9,0,0,0-1.9.9v7.5h-2.2Z"/><path class="cls-1" d="M160.5,18.8c0-3.7,1.5-5.2,4.1-5.2a3.9,3.9,0,0,1,3,1.1l-1.2,1.5a2.2,2.2,0,0,0-1.7-.8c-1.3,0-1.8.5-1.8,3.4s.5,3.5,1.9,3.5a2.4,2.4,0,0,0,1.7-.8l1.1,1.5a3.9,3.9,0,0,1-3,1.2C161.9,24.1,160.5,22.4,160.5,18.8Z"/><path class="cls-1" d="M169.8,18.8c0-3.8,1.5-5.2,4-5.2s3.9,1.5,3.9,5.2v.7h-5.6c.1,2.3.6,2.8,2.1,2.8a3.5,3.5,0,0,0,2.3-.9l1.1,1.5a4.9,4.9,0,0,1-3.3,1.2C171.3,24.1,169.8,22.6,169.8,18.8Zm2.4-.9h3.3c0-1.9-.4-2.6-1.6-2.6S172.3,15.8,172.2,17.9Z"/><path class="cls-1" d="M186,20.9c0-2.3,1.3-3.3,4.5-3.3h.7v-.6c0-1-.1-1.6-1.3-1.6a5.7,5.7,0,0,0-2.8.9l-.8-1.6a6.7,6.7,0,0,1,3.8-1.2c2.2,0,3.3.9,3.3,3.1v7.1h-1.8l-.3-.9a3.2,3.2,0,0,1-2.4,1.1C187,24.1,186,22.9,186,20.9Zm5.2.7V19.1h-.4c-2.2,0-2.5.6-2.5,1.8s.3,1.5,1.2,1.5A2.4,2.4,0,0,0,191.2,21.6Z"/><path class="cls-1" d="M197.1,13.8h1.8l.2,1.1a4.1,4.1,0,0,1,2.9-1.3c1.6,0,2.5.7,2.5,2.6v7.6h-2.2V16.8c0-1-.3-1.3-1.1-1.3a2.9,2.9,0,0,0-1.9.9v7.5h-2.2Z"/><path class="cls-1" d="M207.7,18.9c0-4,1.1-5.3,3.4-5.3a3.7,3.7,0,0,1,2.5,1.1V9.5h2.2V23.8H214l-.3-1a3.4,3.4,0,0,1-2.6,1.2C209.2,24.1,207.7,22.9,207.7,18.9Zm5.8,2.5V16.2a2.6,2.6,0,0,0-1.8-.8c-1.2,0-1.7.6-1.7,3.4s.4,3.4,1.5,3.4A2.5,2.5,0,0,0,213.6,21.4Z"/><path class="cls-1" d="M227.5,12.2h-3.1V10.2H233v2.1h-3.1V23.8h-2.3Z"/><path class="cls-1" d="M234.3,18.8c0-3.8,1.5-5.2,4-5.2s3.9,1.5,3.9,5.2v.7h-5.6c.1,2.3.6,2.8,2.1,2.8a3.5,3.5,0,0,0,2.3-.9l1.1,1.5a4.9,4.9,0,0,1-3.3,1.2C235.8,24.1,234.3,22.6,234.3,18.8Zm2.4-.9H240c0-1.9-.4-2.6-1.6-2.6S236.8,15.8,236.7,17.9Z"/><path class="cls-1" d="M244.9,18.8c0-3.7,1.5-5.2,4.1-5.2a3.9,3.9,0,0,1,3,1.1l-1.2,1.5a2.2,2.2,0,0,0-1.7-.8c-1.3,0-1.8.5-1.8,3.4s.5,3.5,1.9,3.5a2.4,2.4,0,0,0,1.7-.8l1.1,1.5a3.9,3.9,0,0,1-3,1.2C246.3,24.1,244.9,22.4,244.9,18.8Z"/><path class="cls-1" d="M254.9,9.5h2.2v5.3a3.9,3.9,0,0,1,2.7-1.2c1.6,0,2.5.7,2.5,2.6v7.6h-2.2V16.8c0-1-.3-1.3-1.1-1.3a2.9,2.9,0,0,0-1.9.9v7.5h-2.2Z"/><path class="cls-1" d="M266,13.8h1.8l.2,1.1a4.1,4.1,0,0,1,2.9-1.3c1.6,0,2.5.7,2.5,2.6v7.6h-2.2V16.8c0-1-.3-1.3-1.1-1.3a2.9,2.9,0,0,0-1.9.9v7.5H266Z"/><path class="cls-1" d="M276.6,18.8c0-3.8,1.6-5.2,4.2-5.2s4.2,1.5,4.2,5.2-1.6,5.2-4.2,5.2S276.6,22.6,276.6,18.8Zm6,0c0-2.9-.5-3.5-1.8-3.5s-1.8.7-1.8,3.6.5,3.6,1.8,3.6S282.6,21.6,282.6,18.8Z"/><path class="cls-1" d="M288.2,21.2V9.5h2.2V21.5c0,.6.2.8.7.8h.3l.3,1.5-1.4.3C288.6,24,288.2,23.2,288.2,21.2Z"/><path class="cls-1" d="M294,18.8c0-3.8,1.6-5.2,4.2-5.2s4.2,1.5,4.2,5.2-1.6,5.2-4.2,5.2S294,22.6,294,18.8Zm6,0c0-2.9-.5-3.5-1.8-3.5s-1.8.7-1.8,3.6.5,3.6,1.8,3.6S300,21.6,300,18.8Z"/><path class="cls-1" d="M304.8,25a2.2,2.2,0,0,1,1.3-2,1.7,1.7,0,0,1-.8-1.5,2.4,2.4,0,0,1,1.1-2,3,3,0,0,1-1.2-2.6c0-2.1,1.3-3.3,3.7-3.3l1.6.3h3v1.2l-1.1.4a3.6,3.6,0,0,1,.3,1.5c0,2.1-1.2,3.1-3.7,3.1h-1.2a1.7,1.7,0,0,0-.4,1c0,.3.2.5.7.5h1.8c2.1,0,3.5.8,3.5,2.8s-1.4,3.3-4.4,3.3S304.8,26.6,304.8,25Zm2.1-.3c0,.9.3,1.3,2.1,1.3s2.2-.5,2.2-1.5-.6-1.1-1.7-1.1h-2.1A1.9,1.9,0,0,0,306.9,24.7Zm3.6-7.8c0-1.2-.4-1.7-1.6-1.7s-1.5.5-1.5,1.7.4,1.6,1.5,1.6S310.5,18.1,310.5,16.9Z"/><path class="cls-1" d="M316.2,26.1c1.7-.3,2.2-.7,2.8-2.2h-.6l-3.1-10h2.4l1.4,5.5a20.1,20.1,0,0,1,.5,2.5h0a25,25,0,0,1,.5-2.5l1.5-5.5h2.3L320.9,24c-.9,2.9-1.8,3.5-4.3,3.8Z"/><path class="cls-1" d="M331.5,13.8h1.1V12.5c0-2.6,1.3-3.1,2.8-3.1a4.4,4.4,0,0,1,2.2.5l-.6,1.6a2.2,2.2,0,0,0-1.1-.3c-.7,0-1,.3-1,1.2v1.5h1.8v1.7h-1.8v8.2h-2.2V15.6h-1.1Z"/><path class="cls-1" d="M338.7,18.8c0-3.8,1.6-5.2,4.2-5.2s4.2,1.5,4.2,5.2-1.6,5.2-4.2,5.2S338.7,22.6,338.7,18.8Zm6,0c0-2.9-.5-3.5-1.8-3.5s-1.8.7-1.8,3.6.5,3.6,1.8,3.6S344.7,21.6,344.7,18.8Z"/><path class="cls-1" d="M350.3,13.8h1.8l.3,1.3a3.3,3.3,0,0,1,2.6-1.4h.6l-.4,2.3-.8-.2a2.5,2.5,0,0,0-1.8.7v7.2h-2.2Z"/><path class="cls-1" d="M363.1,22.8,364,21a5,5,0,0,0,3.2,1.1c1.6,0,2.2-.7,2.2-1.9s-.8-1.8-2.2-2.3-3.5-1.7-3.5-4.2,1.6-3.8,4.1-3.8a5.9,5.9,0,0,1,3.5.9l-.9,1.8a4,4,0,0,0-2.4-.8c-1.2,0-1.9.5-1.9,1.6s.4,1.5,1.9,2,3.9,1.5,3.9,4.4-1.1,4.1-4.5,4.1A7.1,7.1,0,0,1,363.1,22.8Z"/><path class="cls-1" d="M374.6,20.9c0-2.3,1.3-3.3,4.5-3.3h.7v-.6c0-1-.1-1.6-1.3-1.6a5.7,5.7,0,0,0-2.8.9l-.8-1.6a6.7,6.7,0,0,1,3.8-1.2c2.2,0,3.3.9,3.3,3.1v7.1h-1.8L380,23a3.2,3.2,0,0,1-2.4,1.1C375.6,24.1,374.6,22.9,374.6,20.9Zm5.2.7V19.1h-.4c-2.2,0-2.5.6-2.5,1.8s.3,1.5,1.2,1.5A2.4,2.4,0,0,0,379.8,21.6Z"/><path class="cls-1" d="M384.7,13.8h1.1V12.5c0-2.6,1.3-3.1,2.8-3.1a4.4,4.4,0,0,1,2.2.5l-.6,1.6a2.2,2.2,0,0,0-1.1-.3c-.7,0-1,.3-1,1.2v1.5h1.8v1.7H388v8.2h-2.2V15.6h-1.1Z"/><path class="cls-1" d="M392,18.8c0-3.8,1.5-5.2,4-5.2s3.9,1.5,3.9,5.2v.7h-5.6c.1,2.3.6,2.8,2.1,2.8a3.5,3.5,0,0,0,2.3-.9l1.1,1.5a4.9,4.9,0,0,1-3.3,1.2C393.5,24.1,392,22.6,392,18.8Zm2.4-.9h3.3c0-1.9-.4-2.6-1.6-2.6S394.5,15.8,394.4,17.9Z"/><path class="cls-1" d="M402.4,25a2.2,2.2,0,0,1,1.3-2,1.7,1.7,0,0,1-.8-1.5,2.4,2.4,0,0,1,1.1-2,3,3,0,0,1-1.2-2.6c0-2.1,1.3-3.3,3.7-3.3l1.6.3h3v1.2l-1.1.4a3.6,3.6,0,0,1,.3,1.5c0,2.1-1.2,3.1-3.7,3.1h-1.2a1.7,1.7,0,0,0-.4,1c0,.3.2.5.7.5h1.8c2.1,0,3.5.8,3.5,2.8s-1.4,3.3-4.4,3.3S402.4,26.6,402.4,25Zm2.1-.3c0,.9.3,1.3,2.1,1.3s2.2-.5,2.2-1.5-.6-1.1-1.7-1.1h-2.1A1.9,1.9,0,0,0,404.5,24.7Zm3.6-7.8c0-1.2-.4-1.7-1.6-1.7s-1.5.5-1.5,1.7.4,1.6,1.5,1.6S408.1,18.1,408.1,16.9Z"/><path class="cls-1" d="M413.9,21.4V13.8h2.2v7c0,1.1.4,1.4,1.1,1.4a3,3,0,0,0,1.9-.9V13.8h2.2v10h-1.8l-.2-1.1a3.7,3.7,0,0,1-2.8,1.4A2.5,2.5,0,0,1,413.9,21.4Z"/><path class="cls-1" d="M424.6,20.9c0-2.3,1.3-3.3,4.5-3.3h.7v-.6c0-1-.1-1.6-1.3-1.6a5.7,5.7,0,0,0-2.8.9l-.8-1.6a6.7,6.7,0,0,1,3.8-1.2c2.2,0,3.3.9,3.3,3.1v7.1h-1.8l-.3-.9a3.2,3.2,0,0,1-2.4,1.1C425.5,24.1,424.6,22.9,424.6,20.9Zm5.2.7V19.1h-.4c-2.2,0-2.5.6-2.5,1.8s.3,1.5,1.2,1.5A2.4,2.4,0,0,0,429.7,21.6Z"/><path class="cls-1" d="M435.6,13.8h1.8l.3,1.3a3.3,3.3,0,0,1,2.6-1.4h.6l-.4,2.3-.8-.2a2.5,2.5,0,0,0-1.8.7v7.2h-2.2Z"/><path class="cls-1" d="M443.1,18.9c0-4,1.1-5.3,3.4-5.3a3.7,3.7,0,0,1,2.5,1.1V9.5h2.2V23.8h-1.8l-.3-1a3.4,3.4,0,0,1-2.6,1.2C444.5,24.1,443.1,22.9,443.1,18.9Zm5.8,2.5V16.2a2.6,2.6,0,0,0-1.8-.8c-1.2,0-1.7.6-1.7,3.4s.4,3.4,1.5,3.4A2.5,2.5,0,0,0,448.9,21.4Z"/><path class="cls-1" d="M455.4,15.5l-1.3-.2V13.8h3.5v10h-2.2Zm-.3-4.6a1.4,1.4,0,1,1,1.4,1.4A1.4,1.4,0,0,1,455.1,10.9Z"/><path class="cls-1" d="M461.4,13.8h1.8l.2,1.1a4.1,4.1,0,0,1,2.9-1.3c1.6,0,2.5.7,2.5,2.6v7.6h-2.2V16.8c0-1-.3-1.3-1.1-1.3a2.9,2.9,0,0,0-1.9.9v7.5h-2.2Z"/><path class="cls-1" d="M471.9,25a2.2,2.2,0,0,1,1.3-2,1.7,1.7,0,0,1-.8-1.5,2.4,2.4,0,0,1,1.1-2,3,3,0,0,1-1.2-2.6c0-2.1,1.3-3.3,3.7-3.3l1.6.3h3v1.2l-1.1.4a3.6,3.6,0,0,1,.3,1.5c0,2.1-1.2,3.1-3.7,3.1h-1.2a1.7,1.7,0,0,0-.4,1c0,.3.2.5.7.5h1.8c2.1,0,3.5.8,3.5,2.8s-1.4,3.3-4.4,3.3S471.9,26.6,471.9,25Zm2.1-.3c0,.9.3,1.3,2.1,1.3s2.2-.5,2.2-1.5-.6-1.1-1.7-1.1h-2.1A1.9,1.9,0,0,0,474,24.7Zm3.6-7.8c0-1.2-.4-1.7-1.6-1.7s-1.5.5-1.5,1.7.4,1.6,1.5,1.6S477.6,18.1,477.6,16.9Z"/><path class="cls-1" d="M492.1,10.2h2.5l3.9,13.7H496l-.9-3.4h-3.7l-.9,3.4h-2.4Zm-.2,8.4h2.7l-.6-2.3a31.2,31.2,0,0,1-.7-3.4h0a26.7,26.7,0,0,1-.7,3.4Z"/><path class="cls-1" d="M501.1,21.4V13.8h2.2v7c0,1.1.4,1.4,1.1,1.4a3,3,0,0,0,1.9-.9V13.8h2.2v10h-1.8l-.2-1.1a3.7,3.7,0,0,1-2.8,1.4A2.5,2.5,0,0,1,501.1,21.4Z"/><path class="cls-1" d="M511.4,23.1l.8-1.7a4.4,4.4,0,0,0,2.5.8c1.1,0,1.6-.4,1.6-1.2s-.5-1.1-1.9-1.5a2.9,2.9,0,0,1-2.4-3.1c0-1.7,1.1-2.9,3.3-2.9a6,6,0,0,1,2.9.6l-.6,1.7a4.2,4.2,0,0,0-2.1-.5c-.8,0-1.3.3-1.3,1s.4,1,1.6,1.3,2.8,1,2.8,3.2-1.2,3.1-3.6,3.1A6.3,6.3,0,0,1,511.4,23.1Z"/><path class="cls-1" d="M520.7,13.8h1.1V11.3l2.2-.4v2.9h2v1.7h-2v5.8c0,.7.3,1,.8,1a2.8,2.8,0,0,0,1-.2l.4,1.6a3.7,3.7,0,0,1-1.7.4c-1.5,0-2.6-.6-2.6-2.3V15.6h-1.1Z"/><path class="cls-1" d="M528.9,13.8h1.8l.3,1.3a3.3,3.3,0,0,1,2.6-1.4h.6l-.4,2.3-.8-.2a2.5,2.5,0,0,0-1.8.7v7.2h-2.2Z"/><path class="cls-1" d="M536.2,20.9c0-2.3,1.3-3.3,4.5-3.3h.7v-.6c0-1-.1-1.6-1.3-1.6a5.7,5.7,0,0,0-2.8.9l-.8-1.6a6.7,6.7,0,0,1,3.8-1.2c2.2,0,3.3.9,3.3,3.1v7.1h-1.8l-.3-.9a3.2,3.2,0,0,1-2.4,1.1C537.2,24.1,536.2,22.9,536.2,20.9Zm5.2.7V19.1H541c-2.2,0-2.5.6-2.5,1.8s.3,1.5,1.2,1.5A2.4,2.4,0,0,0,541.4,21.6Z"/><path class="cls-1" d="M547.3,21.2V9.5h2.2V21.5c0,.6.2.8.7.8h.3l.3,1.5-1.4.3C547.7,24,547.3,23.2,547.3,21.2Z"/><path class="cls-1" d="M554.1,15.5l-1.3-.2V13.8h3.5v10h-2.2Zm-.3-4.6a1.4,1.4,0,1,1,1.4,1.4A1.4,1.4,0,0,1,553.8,10.9Z"/><path class="cls-1" d="M559.5,20.9c0-2.3,1.3-3.3,4.5-3.3h.7v-.6c0-1-.1-1.6-1.3-1.6a5.7,5.7,0,0,0-2.8.9l-.8-1.6a6.7,6.7,0,0,1,3.8-1.2c2.2,0,3.3.9,3.3,3.1v7.1h-1.8l-.3-.9a3.2,3.2,0,0,1-2.4,1.1C560.5,24.1,559.5,22.9,559.5,20.9Zm5.2.7V19.1h-.4c-2.2,0-2.5.6-2.5,1.8s.3,1.5,1.2,1.5A2.4,2.4,0,0,0,564.7,21.6Z"/><path class="cls-1" d="M15,7.9H1.2A1.3,1.3,0,0,0,0,9.1H0v18H0a1.3,1.3,0,0,0,.3.7,1.3,1.3,0,0,0,1,.5H15a6.4,6.4,0,0,0,6.4-6.4v-8A6.4,6.4,0,0,0,15,7.9m1.6,14.4A1.6,1.6,0,0,1,15,23.9H4.8V12.7H15a1.7,1.7,0,0,1,1.6,1.6Z"/><path class="cls-1" d="M39.9,15.9H30.3a1.6,1.6,0,0,1-1.6-1.6,1.6,1.6,0,0,1,1.6-1.6h13a1.3,1.3,0,0,0,1.2-1.2h0V9.3h0a1.3,1.3,0,0,0-1.2-1.2h-13a6.4,6.4,0,0,0,0,12.8h9.6a1.6,1.6,0,0,1,1.6,1.6,1.6,1.6,0,0,1-1.6,1.6H25.7a1.3,1.3,0,0,0-1.3,1.3v2.3a1.3,1.3,0,0,0,1.2,1.2H39.9a6.4,6.4,0,0,0,0-12.8"/><path class="cls-1" d="M68,7.9H48.6a1.3,1.3,0,0,0-1.2,1.2s0,2.4,0,2.4a1.3,1.3,0,0,0,1.2,1.2h7.3s0,14.7,0,14.7A1.3,1.3,0,0,0,57,28.7h2.4a1.3,1.3,0,0,0,1.2-1.2s0-9.4,0-14.7H68a1.3,1.3,0,0,0,1.2-1.2V9.1A1.3,1.3,0,0,0,68,7.9Z"/></svg>