<?xml version="1.0" encoding="utf-8"?>
<svg version="1.0" width="642.000000pt" height="339.000000pt" viewBox="0 0 642.000000 339.000000" preserveAspectRatio="xMidYMid meet" xmlns="http://www.w3.org/2000/svg">
  <g transform="translate(0.000000,339.000000) scale(0.100000,-0.100000)" fill="#000000" stroke="none">
    <path d="M2810 3225 l0 -165 290 0 290 0 0 -1210 0 -1210 285 0 285 0 0 1210 0 1210 280 0 280 0 0 165 0 165 -855 0 -855 0 0 -165z" style="fill: rgb(166, 22, 27);"/>
    <path d="M70 2605 l0 -165 607 0 c626 0 701 -4 775 -41 64 -32 98 -98 113 -216 l7 -52 -584 -3 c-519 -3 -590 -6 -643 -21 -193 -56 -277 -151 -321 -362 -27 -129 -28 -597 -1 -728 42 -208 121 -302 307 -363 51 -17 114 -19 933 -22 l879 -3 -5 823 c-3 539 -9 845 -16 888 -33 194 -102 305 -223 364 -136 66 -137 66 -1028 66 l-800 0 0 -165z m1500 -1226 l0 -420 -397 3 c-439 4 -472 9 -531 68 -62 61 -67 84 -70 322 -2 173 0 227 12 269 30 100 89 148 207 168 30 5 217 9 417 10 l362 1 0 -421z" style="fill: rgb(4, 46, 2);"/>
    <path d="M2430 1628 c0 -716 4 -1166 10 -1205 33 -200 112 -314 260 -373 103 -41 208 -50 613 -50 l377 0 0 169 0 169 -252 5 c-156 2 -267 8 -289 15 -60 20 -101 54 -128 107 l-26 49 -3 1128 -2 1128 -280 0 -280 0 0 -1142z" style="fill: rgb(166, 22, 27);"/>
    <path d="M4360 2605 l0 -165 603 0 c628 0 698 -4 777 -43 59 -29 100 -106 107 -201 l6 -65 -584 -4 c-645 -4 -636 -3 -762 -70 -101 -53 -157 -138 -194 -294 -15 -67 -18 -123 -18 -388 0 -270 2 -320 19 -385 40 -161 98 -243 214 -300 120 -59 130 -60 1053 -60 l840 0 -3 853 c-4 844 -4 853 -26 932 -30 108 -63 171 -114 224 -57 58 -123 90 -233 112 -83 17 -148 19 -887 19 l-798 0 0 -165z m1490 -1226 l0 -420 -392 3 c-447 4 -472 8 -539 78 -55 58 -61 94 -57 355 l3 230 29 53 c61 110 110 120 594 121 l362 1 0 -421z" style="fill: rgb(4, 46, 2);"/>
  </g>
</svg>